<?xml version="1.0" encoding="utf-8"?>
<!-- Generator: Adobe Illustrator 25.4.1, SVG Export Plug-In . SVG Version: 6.00 Build 0)  -->
<svg version="1.1" id="Layer_1" xmlns="http://www.w3.org/2000/svg" xmlns:xlink="http://www.w3.org/1999/xlink" x="0px" y="0px"
	 viewBox="0 0 730 160" style="enable-background:new 0 0 730 160;" xml:space="preserve">
<style type="text/css">
	.st0{display:none;}
	.st1{display:inline;opacity:0.3;}
	.st2{fill:#262262;}
	.st3{fill:#121228;}
</style>
<g id="Layer_1_00000160153777922566624900000000763204563852168096_" class="st0">
	<g class="st1">
		<g>
			<path d="M330.9-191.5c-0.8,1.4-1.5,2.8-2.1,4.3c-0.1,0.3-0.1,0.7,0,1c0,0.3,0.1,0.6,0.3,0.9c0.3,0.5,0.9,1,1.5,1.1
				c0.6,0.2,1.4,0.1,1.9-0.2c0.2-0.1,0.3-0.3,0.5-0.4c0.3-0.3,0.5-0.7,0.6-1.1c0.1-0.2,0.2-0.4,0.3-0.6c-0.1,0.2-0.2,0.4-0.2,0.6
				c0.5-1.1,1-2.1,1.6-3c0.3-0.5,0.4-1.3,0.2-1.9c-0.2-0.6-0.6-1.2-1.1-1.5c-0.6-0.3-1.3-0.5-1.9-0.2
				C331.8-192.4,331.3-192.1,330.9-191.5L330.9-191.5z"/>
		</g>
	</g>
	<g class="st1">
		<g>
			<path d="M329.1-192.1c-6.2,8.8-8,20.4-4.7,30.7c1,3.1,5.8,1.7,4.8-1.3c-3-9.1-1.3-19.1,4.2-26.9c0.8-1.1,0.2-2.8-0.9-3.4
				C331.2-193.7,329.9-193.2,329.1-192.1L329.1-192.1z"/>
		</g>
	</g>
	<g class="st1">
		<g>
			<path d="M322.5-180.9c-1.2,13.5,0.3,27.3,5.1,40c0.5,1.3,1.7,2.1,3.1,1.8c1.2-0.3,2.2-1.8,1.8-3.1c-4.6-12.3-6-25.6-4.9-38.7
				c0.1-1.3-1.2-2.5-2.5-2.5C323.5-183.4,322.6-182.2,322.5-180.9L322.5-180.9z"/>
		</g>
	</g>
	<g class="st1">
		<g>
			<path d="M394.2-207.1c-6.9-4.4-15.3-5.4-23.3-5c-1.4,0.1-2.5,1.1-2.5,2.5c0,1.3,1.1,2.6,2.5,2.5c7.2-0.4,14.6,0.4,20.8,4.4
				C394.4-201.1,396.9-205.4,394.2-207.1L394.2-207.1z"/>
		</g>
	</g>
	<g class="st1">
		<g>
			<path d="M372.5-206.8c8.3,0,16.7,1.7,23.6,6.6c7.6,5.4,12,14.3,13.1,23.4c1.2,9.4-1.3,18.9-6,27.1c-4.1,7.1-10.1,13-17.8,16.2
				c-8.1,3.4-17.5,3.5-25.6-0.1c-1.2-0.6-2.7-0.4-3.4,0.9c-0.6,1.1-0.3,2.9,0.9,3.4c8.3,3.7,17.6,4.4,26.4,1.7
				c8.9-2.7,16.5-8.5,21.7-16.1c5.9-8.7,9.5-19.2,9.1-29.8c-0.4-10.5-4.5-21.2-12.4-28.3c-8.1-7.2-18.8-10-29.5-10
				C369.3-211.8,369.3-206.8,372.5-206.8L372.5-206.8z"/>
		</g>
	</g>
	<g class="st1">
		<g>
			<path d="M365-127.5c9.9,2.9,21.4,4,30.2-2.3c1.1-0.8,1.6-2.2,0.9-3.4c-0.6-1.1-2.3-1.7-3.4-0.9c-7.8,5.6-17.7,4.3-26.3,1.8
				C363.3-133.3,362-128.4,365-127.5L365-127.5z"/>
		</g>
	</g>
	<g class="st1">
		<g>
			<path d="M322.3-167.9c0.7,1.8,1.3,3.6,2,5.4c0.2,0.6,0.5,1.1,1.1,1.5c0.5,0.3,1.3,0.4,1.9,0.2s1.2-0.6,1.5-1.2
				c0.3-0.6,0.5-1.3,0.2-1.9c-0.7-1.8-1.4-3.6-2-5.4c-0.2-0.6-0.6-1.2-1.1-1.5c-0.5-0.3-1.3-0.4-1.9-0.2s-1.2,0.6-1.5,1.1
				C322.2-169.2,322-168.5,322.3-167.9L322.3-167.9z"/>
		</g>
	</g>
	<g class="st1">
		<g>
			<path d="M385.1-132.9c-13.1,5.5-30,4.5-39.8-6.9c-0.9-1-2.6-0.9-3.5,0c-1,1-0.9,2.5,0,3.5c8.4,9.8,22,12.9,34.3,11.1
				c3.5-0.5,7-1.5,10.3-2.9c1.2-0.5,2.1-1.7,1.8-3.1C387.9-132.3,386.4-133.4,385.1-132.9L385.1-132.9z"/>
		</g>
	</g>
	<g class="st1">
		<g>
			<path d="M376.2-127.7c1.6-0.1,3.2-0.2,4.9-0.4c0.3,0,0.7-0.1,1-0.2c0.3-0.1,0.6-0.3,0.8-0.5c0.4-0.4,0.8-1.1,0.7-1.8
				c0-0.7-0.2-1.3-0.7-1.8c-0.5-0.4-1.1-0.8-1.8-0.7c-1.6,0.2-3.2,0.3-4.9,0.4c-0.7,0-1.3,0.2-1.8,0.7c-0.4,0.4-0.8,1.1-0.7,1.8
				c0,0.6,0.2,1.3,0.7,1.8C375-128,375.6-127.6,376.2-127.7L376.2-127.7z"/>
		</g>
	</g>
	<g class="st1">
		<g>
			<path d="M329.5-193.4c-12.4,14.9-8.8,37.5,4.3,50.8c4.3,4.4,9.5,7.8,15.1,10.2c1.2,0.5,2.7,0.4,3.4-0.9c0.6-1.1,0.4-2.9-0.9-3.4
				c-8.4-3.6-15.7-9.6-20.1-17.7c-3.8-7-5.5-15.4-4-23.2c0.9-4.5,2.8-8.8,5.7-12.3c0.9-1,1-2.5,0-3.5
				C332.1-194.3,330.3-194.4,329.5-193.4L329.5-193.4z"/>
		</g>
	</g>
	<g class="st1">
		<g>
			<path d="M329.3-160.3c-0.1-1-0.1-2-0.1-3c0-0.3-0.1-0.7-0.2-1c-0.1-0.3-0.3-0.6-0.5-0.8c-0.2-0.2-0.5-0.4-0.8-0.5
				c-0.3-0.2-0.6-0.2-1-0.2c-0.6,0-1.3,0.2-1.8,0.7c-0.5,0.5-0.7,1.1-0.7,1.8c0,1,0,2,0.1,3c0,0.3,0.1,0.7,0.2,1
				c0.1,0.3,0.3,0.6,0.5,0.8c0.2,0.2,0.5,0.4,0.8,0.5c0.3,0.2,0.6,0.2,1,0.2c0.6,0,1.3-0.2,1.8-0.7C329-159,329.4-159.7,329.3-160.3
				L329.3-160.3z"/>
		</g>
	</g>
	<g class="st1">
		<g>
			<path d="M388.3-134.1c-17.1,3.8-38.2,3.9-51.1-9.9c-4.2-4.5-7-10-7.9-16c-0.2-1.3-1.9-2.1-3.1-1.8c-1.4,0.4-1.9,1.7-1.8,3.1
				c1.6,11.1,9.5,20.7,19.2,25.9c8.8,4.8,19.1,6.2,29,5.8c5.7-0.2,11.4-1.1,16.9-2.3C392.8-129.9,391.5-134.8,388.3-134.1
				L388.3-134.1z"/>
		</g>
	</g>
	<g class="st1">
		<g>
			<path d="M383.7-211.1c-18.4-1.9-39.1,0.4-52.3,14.8c-2.2,2.4,1.4,5.9,3.5,3.5c12.3-13.4,31.6-15.1,48.8-13.3
				c1.3,0.1,2.5-1.2,2.5-2.5C386.2-210.1,385-210.9,383.7-211.1L383.7-211.1z"/>
		</g>
	</g>
	<g class="st1">
		<g>
			<path d="M330.2-186.1c5.5-8,13.2-14.2,22-18.2c1.2-0.6,1.5-2.3,0.9-3.4c-0.7-1.3-2.2-1.4-3.4-0.9c-9.6,4.3-17.8,11.3-23.8,20
				c-0.8,1.1-0.2,2.8,0.9,3.4C328.1-184.5,329.5-185,330.2-186.1L330.2-186.1z"/>
		</g>
	</g>
	<g class="st1">
		<g>
			<path d="M391.3-127.7c5.1-2.3,9.5-5.9,12.8-10.3c0.8-1.1,0.2-2.8-0.9-3.4c-1.3-0.7-2.6-0.2-3.4,0.9c-0.3,0.4,0.2-0.2,0,0
				c-0.1,0.1-0.2,0.2-0.3,0.4c-0.2,0.2-0.4,0.4-0.6,0.7c-0.4,0.5-0.8,0.9-1.2,1.4c-0.9,0.9-1.8,1.7-2.8,2.5c-0.3,0.2,0.3-0.2,0,0
				c-0.1,0.1-0.3,0.2-0.4,0.3c-0.3,0.2-0.5,0.4-0.8,0.6c-0.5,0.4-1,0.7-1.6,1c-1.1,0.6-2.2,1.2-3.4,1.7c-1.2,0.5-1.6,2.4-0.9,3.4
				C388.7-127.4,390-127.2,391.3-127.7L391.3-127.7z"/>
		</g>
	</g>
	<g class="st1">
		<g>
			<path d="M321.9-183.3c6.2-9.7,15.6-16.7,26-21.3c10.7-4.8,22.9-7.4,34.7-7.6c7.1-0.1,14.2,1,20.4,4.6c2.8,1.6,5.3-2.7,2.5-4.3
				c-12-7-26.9-5.9-40-3.3c-12,2.4-23.9,6.9-33.7,14.2c-5.6,4.2-10.5,9.3-14.2,15.2C315.9-183.1,320.2-180.6,321.9-183.3
				L321.9-183.3z"/>
		</g>
	</g>
	<g class="st1">
		<g>
			<path d="M417.9-190.1c-8-13.5-21.9-22.2-36.8-26.1c-4.6-1.2-9.3-2-14.1-2.4c-1.4-0.1-2.5,1.2-2.5,2.5c0,1.5,1.1,2.4,2.5,2.5
				c14.5,1.4,29,6.6,39.4,17c2.8,2.8,5.1,5.8,7.1,9.1C415.3-184.9,419.6-187.4,417.9-190.1L417.9-190.1z"/>
		</g>
	</g>
	<g class="st1">
		<g>
			<path d="M418.6-187.4c-8.7-10-19.8-17.7-32-22.7c-1.2-0.5-2.8,0.5-3.1,1.8c-0.4,1.4,0.5,2.6,1.8,3.1
				c11.5,4.7,21.7,12.1,29.8,21.4c0.9,1,2.6,0.9,3.5,0C419.6-184.9,419.5-186.4,418.6-187.4L418.6-187.4z"/>
		</g>
	</g>
	<g class="st1">
		<g>
			<path d="M421.3-185.3c4.1-6.2,8.3-12.3,12.4-18.5c1-1.5,2-3,3-4.5c0.9-1.4,2.1-2.8,2.8-4.3c1.6-3.4-1.5-6.2-3.8-8.4
				c-8.4-8.4-19.3-13.9-30.3-18c-6.2-2.3-12.6-4.3-18.9-6.2c-3.1-0.9-4.4,3.9-1.3,4.8c10.6,3.2,21.2,6.4,31,11.5
				c4.8,2.5,9.3,5.4,13.4,8.9c1,0.9,1.9,1.7,2.8,2.7c0.8,0.9,2.2,1.9,2.7,3c0-0.1,0-0.3,0-0.4c-0.1,0.4-0.5,0.8-0.7,1.1
				c-0.5,0.7-0.9,1.4-1.4,2.1c-1,1.5-2,3-3,4.5c-4.3,6.4-8.7,12.9-13,19.3C415.2-185.1,419.5-182.6,421.3-185.3L421.3-185.3z"/>
		</g>
	</g>
	<g class="st1">
		<g>
			<path d="M322.7-184.4c-3.4-6.1-6.8-12.1-10.2-18.1c-1.7-3-3.4-6.1-5.1-9.1c-0.4-0.7-0.8-1.4-1.2-2.2c-0.1-0.1-1-2.1-1.2-2.1
				c0.8-0.1-0.7,1.3,0.4,0.3c0.2-0.2,0.4-0.4,0.6-0.6c0.6-0.5,1.2-1.1,1.9-1.6c8.8-7.4,18.9-13.3,29.7-17.2
				c6.1-2.2,12.5-3.8,18.9-4.8c1.3-0.2,2.1-1.9,1.8-3.1c-0.4-1.4-1.7-2-3.1-1.8c-12.4,1.9-24.3,6.1-35.2,12.3
				c-5.4,3.1-10.6,6.7-15.4,10.7c-1.1,0.9-2.4,1.9-3.4,3c-1.3,1.6-1.5,3.4-0.6,5.2c1.6,3.4,3.7,6.6,5.5,9.8
				c4,7.2,8.1,14.4,12.1,21.6C319.9-179.1,324.3-181.6,322.7-184.4L322.7-184.4z"/>
		</g>
	</g>
	<g class="st1">
		<g>
			<path d="M348.3-241.2c3.2-6,6.4-11.9,9.6-17.9c2.9-5.4,5.7-10.9,9.7-15.5c0.9-1,1-2.5,0-3.5c-0.9-0.9-2.6-1-3.5,0
				c-4.2,4.8-7.3,10.4-10.3,16.1c-3.3,6.1-6.6,12.2-9.9,18.4C342.4-240.9,346.8-238.4,348.3-241.2L348.3-241.2z"/>
		</g>
	</g>
	<g class="st1">
		<g>
			<path d="M399.8-240.1c-2.5-14.6-12.8-26.1-23.8-35.2c-3.4-2.8-6.9-5.4-10.4-8.1c-1.1-0.8-2.8-0.2-3.4,0.9
				c-0.8,1.3-0.2,2.6,0.9,3.4c13.7,10.4,28.9,22.3,32,40.3c0.2,1.3,1.9,2.1,3.1,1.8C399.4-237.4,400-238.7,399.8-240.1L399.8-240.1z
				"/>
		</g>
	</g>
	<g class="st1">
		<g>
			<path d="M370.4-82c-4.1-2.8-7.9-5.8-11.5-9.1c-3.3-3.1-6.7-6.3-8.9-10.3c-1.9-3.3-2.7-7.6-1.1-11.2c0.7-1.6,2-3.1,3.6-3.7
				c1.7-0.6,3.2,0.4,4.3,1.6c1.8,1.8,3,4,4.4,6.1c1.6,2.5,3.2,5,4.7,7.6c1,1.7,3.3,1.6,4.3,0c2.9-4.5,6.4-8.6,10.4-12.2
				c2-1.8,4-3.4,6.2-4.9c1-0.7,2-1.3,3.1-2c0.2-0.1,1.8-0.8,1.8-1c-0.3-0.1-0.5-0.2-0.8-0.3c0.1,0,0.1,0.1,0.1,0.2
				c0.1,0.4,0.5,0.9,0.7,1.2c4.9,9.8-0.3,21.1-7.7,27.9c-4.6,4.2-10.3,7.1-14.1,12.1c-0.8,1.1-0.2,2.8,0.9,3.4
				c1.3,0.8,2.6,0.2,3.4-0.9c1.8-2.4,4.3-4.2,6.7-5.9c2.5-1.8,5-3.6,7.2-5.8c4.4-4.2,7.9-9.5,9.5-15.4c1.6-6.2,1.2-12.9-1.9-18.6
				c-0.8-1.4-1.8-2.6-3.4-3c-2-0.4-3.8,0.9-5.4,1.8c-2.6,1.6-5.1,3.4-7.5,5.3c-5.4,4.3-9.9,9.5-13.7,15.3c1.4,0,2.9,0,4.3,0
				c-1.6-2.6-3.2-5.2-4.8-7.8c-1.5-2.3-3-4.8-4.9-6.8c-1.8-1.9-4.1-3.3-6.7-3.4c-2.7-0.1-5.4,1.4-7.2,3.4c-3.5,3.9-4.2,9.6-2.9,14.6
				c1.5,5.2,5,9.4,8.7,13.1c4.7,4.7,9.9,8.9,15.5,12.7C370.6-75.8,373.1-80.2,370.4-82L370.4-82z"/>
		</g>
	</g>
	<g class="st1">
		<g>
			<path d="M406.9-85.4c5.3-12.8,5.3-27.8,0-40.6c-0.6,1-1.2,2.1-1.8,3.1c12.2-2.5,24.9-8.1,30.9-19.7c1.4-2.7,2.3-5.5,2.7-8.5
				c0.3-2.5,0.5-5.5,2.7-7c1.9-1.3,4.5-1.4,6.7-1.3c2.9,0.1,5.8,0.5,8.7,0.8c25.8,2.3,52.1,1.4,77.3-4.9c14-3.5,27.5-8.9,39.9-16.1
				c-1.1-0.3-2.3-0.6-3.4-0.9c5.2,10.5,7.8,22.8,5.6,34.5c-2,10.6-7.6,20.6-16.4,26.9c-4.8,3.4-10.1,5.9-15.6,8.1
				c-5.6,2.2-11.3,4.2-17,5.8c-11.5,3.2-23.3,5-35.3,5c-13.1,0-26.3-2.3-38.4-7.4c-2-0.8-4.2,0.5-3.7,2.8c0.9,3.6-0.4,7.4-3.1,9.9
				c-2.7,2.4-7,3.1-10.3,1.7c-0.9-0.4-1.9-0.5-2.8,0.2c-0.7,0.6-1.2,1.7-0.9,2.6c0.8,2.1,0.2,4.3-1.3,6c-1.9,2.1-4.4,3-7.2,3
				c-3.2,0-6.4-1.1-9.3-2.5c-3.2-1.6-6.2-3.4-9-5.7c-1-0.9-2.5-1-3.5,0c-0.9,0.9-1,2.7,0,3.5c3.4,2.8,7.1,5.2,11.2,7
				c3.9,1.7,8.1,3,12.4,2.5c3.8-0.4,7.2-2.1,9.5-5.1c2.3-2.9,3.4-6.7,2.1-10.2c-1.2,0.9-2.5,1.9-3.7,2.8c5.4,2.3,11.5,1.6,16.1-2.2
				c4.2-3.6,5.9-9.6,4.6-15c-1.2,0.9-2.5,1.9-3.7,2.8c23.5,10,49.7,10,74.2,3.8c6.1-1.5,12.1-3.4,18-5.7c5.9-2.3,11.8-4.7,17.1-8.2
				c10.1-6.5,17.1-16.5,20.1-28c3.7-14,1-28.8-5.3-41.7c-0.6-1.2-2.3-1.5-3.4-0.9c-22.1,12.9-47.4,19.2-72.7,21
				c-12.8,0.9-25.6,0.7-38.4-0.3c-3.2-0.2-6.4-0.6-9.6-0.9c-2.7-0.2-5.4-0.3-8,0.3c-2.8,0.6-5.3,2-6.9,4.4c-1.8,2.6-1.8,5.8-2.4,8.9
				c-1.1,6.1-5,11.4-9.9,15.1c-5.8,4.4-12.9,6.6-19.9,8c-1.2,0.2-2.2,1.9-1.8,3.1c5,12.1,5,25.8,0,37.9c-0.5,1.2,0.6,2.8,1.8,3.1
				C405.3-83.3,406.4-84.2,406.9-85.4L406.9-85.4z"/>
		</g>
	</g>
	<g class="st1">
		<g>
			<path d="M352.1-82.4c-10.2-7.6-16.9-20.3-17.6-33c-0.2-3.6,0.1-7.3,2.4-10.3c0.8-1.1,0.2-2.8-0.9-3.4c-1.3-0.8-2.6-0.2-3.4,0.9
				c-4.5,6-3.4,15-1.7,21.8c1.8,7.2,5.2,14,9.8,19.8c2.6,3.2,5.6,6,8.9,8.5c1.1,0.8,2.8,0.2,3.4-0.9
				C353.7-80.2,353.2-81.6,352.1-82.4L352.1-82.4z"/>
		</g>
	</g>
	<g class="st1">
		<g>
			<path d="M331.7-131.5c-4.8-0.7-9.5-2.2-13.6-4.8c-4.1-2.6-6.8-6.6-10.1-10.1c-6.3-6.5-15.2-9-23.8-10.2
				c-9.7-1.4-19.6-1.4-29.4-2.4c-10.5-1-20.9-3-31-5.9c-10.8-3.1-21.4-7.3-31.2-12.7c-1-0.5-2.2-0.4-3,0.4c-4.7,4.9-7.6,11-8.3,17.7
				c-0.6,6.3,1.1,12.8,4.2,18.3c6.5,11.8,18.4,20,30,26.2c7.7,4.1,16,7.9,24.9,6.5c-0.9-1.2-1.9-2.4-2.8-3.7
				c-2.1,4.5-1.3,9.4,1.7,13.4c3.2,4.4,7.9,7.2,12.9,9.2c5.5,2.2,11.3,3.3,17.1,4.1c5.8,0.8,11.6,1.4,17.4,1.5c6.5,0,13-0.8,19-3.4
				c-1.1-0.3-2.3-0.6-3.4-0.9c3.4,7.1,12.2,10.5,19.5,11.7c9.9,1.7,19.9,0.2,29.6-1.7c1.3-0.3,2.1-1.8,1.8-3.1
				c-0.4-1.4-1.8-2-3.1-1.8c-8.6,1.7-17.8,3.2-26.5,1.8c-6.1-1-14-3.4-16.9-9.4c-0.6-1.3-2.3-1.4-3.4-0.9c-9.2,4-20.1,2.9-29.8,1.7
				c-5.2-0.6-10.4-1.4-15.4-2.9c-4.5-1.3-9-3.1-12.4-6.3c-2.9-2.7-5.4-6.7-3.6-10.4c1-2.1-0.6-4-2.8-3.7c-6.9,1.1-13.6-2.1-19.5-5.2
				c-5.6-2.9-11.1-6.2-16.1-10.1c-8.8-6.9-17.1-16.4-17.1-28.2c-0.1-6.4,2.5-12.3,6.9-16.9c-1,0.1-2,0.3-3,0.4
				c18.3,10.1,38.6,16.1,59.3,18.7c9.9,1.3,19.9,1.4,29.8,2.4c8.1,0.8,17.4,2.2,23.8,7.9c2.1,1.9,3.9,4.1,5.7,6.2
				c1.8,2.1,3.8,4,6.1,5.6c4.6,3.2,10.1,5.1,15.6,5.9c1.3,0.2,2.7-0.3,3.1-1.8C333.8-129.6,333.1-131.3,331.7-131.5L331.7-131.5z"/>
		</g>
	</g>
	<g class="st1">
		<g>
			<path d="M355.2-74.2c3.4,3.4,6.7,6.8,10.1,10.3c1.7,1.7,3.3,3.6,5.1,5.2c2.2,1.9,4.2,0.6,6.2-0.8c7.8-5.8,15.6-11.7,23.4-17.5
				c1.1-0.8,1.6-2.2,0.9-3.4c-0.6-1.1-2.3-1.7-3.4-0.9c-4.3,3.2-8.5,6.4-12.8,9.6c-2.1,1.6-4.3,3.2-6.4,4.8
				c-1.1,0.8-2.1,1.6-3.2,2.4c-0.5,0.4-1.1,0.8-1.6,1.2c-0.3,0.2-0.5,0.4-0.8,0.6c-0.4,0.2-0.4,0.3,0,0.1c0.4,0.1,0.8,0.2,1.3,0.3
				c-0.5-0.2-1.1-1-1.6-1.5c-0.6-0.6-1.2-1.2-1.7-1.8c-1.3-1.4-2.7-2.7-4-4.1c-2.6-2.6-5.2-5.3-7.8-8
				C356.5-80.1,353-76.5,355.2-74.2L355.2-74.2z"/>
		</g>
	</g>
	<g class="st1">
		<g>
			<path d="M351.9-72.5c3.5,20.8,7.6,41.5,12.5,62c4.9,20.6,10.4,41,16.6,61.3c3.5,11.4,7.2,22.7,11.1,33.9c0.4,1.3,1.7,2.1,3.1,1.8
				c1.2-0.3,2.2-1.8,1.8-3.1c-7-19.9-13.2-40.1-18.9-60.4c-5.6-20.4-10.6-41-14.9-61.8c-2.4-11.7-4.6-23.4-6.5-35.1
				c-0.2-1.3-1.9-2.1-3.1-1.8C352.2-75.2,351.6-73.9,351.9-72.5L351.9-72.5z"/>
		</g>
	</g>
	<g class="st1">
		<g>
			<path d="M393-77.7c-2.2,20.5-3.5,41.2-3.6,61.8c-0.2,20.6,0.7,41.3,2.6,61.9c1.1,11.6,2.5,23.2,4.2,34.7c0.2,1.3,1.9,2.1,3.1,1.8
				c1.4-0.4,2-1.7,1.8-3.1c-3-20.2-5-40.6-5.9-61c-1-20.5-0.9-41,0.2-61.4c0.6-11.6,1.5-23.1,2.8-34.6c0.1-1.3-1.2-2.5-2.5-2.5
				C394-80.2,393.2-79,393-77.7L393-77.7z"/>
		</g>
	</g>
	<g class="st1">
		<g>
			<path d="M367.6,33.8c10.5-0.2,19.5-6.1,27.4-12.6c8.2-6.7,15.7-14.2,22.5-22.4c3.4-4.1,6.6-8.4,9.5-12.8
				c2.7-4.1,4.8-9.4,1.9-13.9c-1.5-2.3-3.8-3.1-6.4-3.6c-1.8-0.3-3.3-0.8-4.6-2.1c-2.3-2.3-3.4-5.9-2.2-8.9c1.1-3,4.5-4.8,7.6-5.1
				c3.8-0.4,7.4,0.8,10.3,3.3c3.3,2.9,5.5,6.9,7,11c1.8,5,2.9,10.3,3.4,15.6c0.5,5.4,0.6,10.9,0.4,16.3c-0.2,4.8-0.7,9.5-1.9,14.2
				c-1.2,4.5-3,8.9-5.9,12.7c-2.8,3.7-6.6,6.6-10.6,8.8c-9.4,5-20.3,6-30.8,6.2c-5.9,0.1-11.7,0.1-17.6,0.1c-2.2,0-5,0.5-7-0.8
				c-1.3-0.8-2-2.3-2.5-3.8c-0.6-1.8-0.8-3.7-0.9-5.6c-0.1-1.4-1.1-2.5-2.5-2.5c-1.3,0-2.6,1.1-2.5,2.5c0.3,4.3,1,9.3,4.2,12.5
				c1.9,1.9,4.4,2.6,7,2.8c3,0.1,6.1,0,9.1,0c11.9-0.1,24.2,0.3,35.8-2.9c10-2.8,19.2-8.5,24.5-17.6c5.3-9,6.5-19.8,6.6-30.1
				c0.1-11.2-0.9-23.1-5.7-33.4c-2.1-4.5-5.2-8.6-9.4-11.4c-3.8-2.5-8.4-3.3-12.8-2.6c-4.1,0.7-8.2,3.1-10.1,7
				c-2,3.9-1.6,8.6,0.6,12.4c1.1,1.9,2.6,3.5,4.4,4.7c0.9,0.6,1.8,1,2.8,1.3c1.2,0.4,2.5,0.4,3.7,0.8c1.8,0.5,2.4,2.3,2.3,4
				c-0.2,2.5-1.9,4.7-3.2,6.7c-6.2,9.1-13.5,17.5-21.4,25.1c-3.9,3.7-7.9,7.2-12.1,10.4c-4.1,3.1-8.5,5.9-13.5,7.5
				c-2.4,0.8-4.9,1.2-7.4,1.3C364.4,28.8,364.4,33.8,367.6,33.8L367.6,33.8z"/>
		</g>
	</g>
	<g class="st1">
		<g>
			<path d="M424.7,71.9c-20.6-7-39.9-17.4-57.3-30.4c-8.6-6.5-16.7-13.8-24.2-21.6c-3.8-3.9-7.4-8-10.8-12.2
				c-3.4-4.2-6.8-8.8-8.6-13.9c-1.9-5.4-1.6-10.9,0.2-16.3c1.7-5.1,4.6-10.4,8.4-14.3c1.6-1.7,3.6-3.3,5.9-3.8
				c1.8-0.4,3.6,0.2,4.6,1.3c2.4,2.3,2.9,6.6,2.3,9.9c-0.9,5.2-4.1,9.7-5.9,14.5c-2.1,5.6-2,11.4,0.3,16.9c2.1,5.1,5.2,9.8,8.5,14.2
				c3.2,4.2,6.7,8.1,10.6,11.6c7.7,7.1,16.7,12.8,26.4,16.9c2.4,1,4.8,1.9,7.3,2.7c2.4,0.8,4.9,1.3,7.3,2.2c2,0.7,4.1,1.7,5.4,3.4
				c1,1.2,1.2,2.9,0.9,4.2c-0.1,0.3-0.1,0.5-0.2,0.8c0,0-0.2,0.4,0,0.1c-0.1,0.2-0.2,0.4-0.3,0.6c0,0.1-0.4,0.5-0.1,0.2
				c-0.3,0.4-0.5,0.5-0.6,0.5c-0.1,0-0.4,0.2-0.1,0.1c0,0-0.8,0.2-0.4,0.1c-1.3,0.2-2.5,1-2.5,2.5c0,1.2,1.1,2.7,2.5,2.5
				c5.2-0.6,7.5-5.7,6.7-10.4c-0.9-5.4-6.2-8.1-11-9.6c-5.1-1.6-10.1-3-15-5.2c-4.9-2.2-9.7-4.9-14.1-8C362,25,354.3,17.1,348.5,8
				c-3.1-4.9-6.2-10.3-5.7-16.3c0.5-5.7,4.1-10.7,6.1-15.9c1.7-4.4,2.2-9.5,0.5-13.9c-1.7-4.7-5.9-8.1-11.1-7.6
				c-5.9,0.7-10.3,5.6-13.4,10.2c-3.4,5.1-6.2,10.9-7.1,17c-1,6.3,0.2,12.4,3.1,18.1c2.7,5.4,6.6,10.1,10.5,14.7
				c7.4,8.7,15.5,16.8,24.3,24.2c17.8,14.9,37.9,26.9,59.5,35.3c2.7,1,5.4,2,8.1,2.9C426.5,77.8,427.8,72.9,424.7,71.9L424.7,71.9z"
				/>
		</g>
	</g>
	<g class="st1">
		<g>
			<path d="M368.6,50.7c-10.2,9.8-16,24-15.3,38.2c0.1,2.4,3.4,3.5,4.7,1.3c6.6-11.4,15.7-21.3,26.5-28.8c1.1-0.8,1.6-2.2,0.9-3.4
				c-0.6-1.1-2.3-1.7-3.4-0.9c-11.5,8-21.2,18.4-28.3,30.5c1.5,0.4,3.1,0.8,4.7,1.3c-0.6-12.9,4.5-25.7,13.8-34.6
				C374.5,52,371,48.5,368.6,50.7L368.6,50.7z"/>
		</g>
	</g>
	<g class="st1">
		<g>
			<path d="M404.8,64.2c4,8.1,6,17.1,6,26.2c1.6-0.2,3.3-0.4,4.9-0.7c-3.6-8.8-9.3-16.5-16.8-22.4c-1.1-0.8-2.5-1-3.5,0
				c-0.9,0.9-1.1,2.7,0,3.5c6.8,5.3,12.2,12.2,15.5,20.2c0.5,1.1,1.4,2,2.7,1.8c1.2-0.2,2.2-1.2,2.2-2.5c0-10-2.3-19.8-6.7-28.7
				c-0.6-1.2-2.3-1.5-3.4-0.9C404.5,61.5,404.2,63,404.8,64.2L404.8,64.2z"/>
		</g>
	</g>
	<g class="st1">
		<g>
			<path d="M127.6,362c-8.1-28.1-17-55.9-26.7-83.5c-2.7-7.8-5.5-15.5-8.3-23.3c-0.6,1-1.2,2-1.8,3.1c19.6-5.5,39.9-7.7,60.2-6.5
				c4.8,0.3,9.7,1,14.6,0.9c4.8-0.1,9.2-1.5,13.1-4.3c4-3,7.6-6.7,11.3-10.1c3.9-3.6,7.7-7.1,11.6-10.7c8.8-8.1,17.5-16.2,26.3-24.2
				c-1.3-0.2-2.6-0.3-3.9-0.5c7,10.6,14,21.1,21,31.7c1.8,2.6,3.5,5.3,5.3,7.9c1.4,2.1,2.9,4.3,5,5.8c2.3,1.7,5,2.1,7.8,2.2
				c3,0,5.9-0.2,8.9-0.3c25.3-0.8,50.7-0.6,75.9,0.6c14.3,0.7,28.5,1.7,42.8,3c-0.6-1.4-1.2-2.9-1.8-4.3c-13.7,16-26.7,32.5-39,49.5
				c-12.2,17-23.7,34.4-34.5,52.4c-2.6,4.3-4.9,8.8-7.6,12.9c-1,1.6-2.4,3.1-4.2,3.6c-2.4,0.7-5.2,0.3-7.7,0.2
				c-11.4-0.4-22.8-0.7-34.1-1.1c-22.7-0.7-45.3-1.4-68-2.2c-22.8-0.7-45.5-1.5-68.3-2.2c-2.8-0.1-5.6-0.2-8.4-0.3
				c-3.2-0.1-3.2,4.9,0,5c23,0.7,45.9,1.5,68.9,2.2s45.9,1.5,68.9,2.2c11.5,0.4,23,0.7,34.5,1.1c2.9,0.1,5.8,0.2,8.7,0.3
				c2.5,0.1,5,0.2,7.4-0.7c4.6-1.6,6.9-6,9.2-9.9c10.6-18.3,22-36.2,34.2-53.5c12.1-17.2,24.9-34,38.5-50.1c1.7-2,3.5-4.1,5.2-6.1
				c1.5-1.7,0.4-4.1-1.8-4.3c-24.6-2.3-49.3-3.7-74.1-4c-12.3-0.2-24.6-0.1-36.9,0.2c-3.1,0.1-6.2,0.2-9.2,0.3c-3,0.1-6,0.5-9,0.2
				c-2.4-0.2-4-1.5-5.5-3.3c-1.7-2.2-3.2-4.7-4.8-7.1c-7.7-11.5-15.3-23.1-23-34.6c-0.9-1.4-2.7-1.6-3.9-0.5
				c-15.2,14.1-30.3,28.3-45.8,42.2c-3.3,3-6.9,5.2-11.4,5.6c-4.8,0.4-9.6-0.4-14.4-0.7c-10-0.7-20-0.5-30,0.4
				c-11.2,1.1-22.4,3.1-33.2,6.2c-1.2,0.3-2.2,1.8-1.8,3.1c10.1,27.5,19.4,55.2,27.9,83.1c2.4,7.9,4.8,15.8,7.1,23.7
				C123.6,366.4,128.5,365,127.6,362L127.6,362z"/>
		</g>
	</g>
	<g class="st1">
		<g>
			<path d="M234,286.7c20.6,0.3,41.2,0.9,61.9,1.8c5.8,0.2,11.6,0.5,17.5,0.8c-0.8-1-1.6-2.1-2.4-3.2c-2.1,9.6-4.5,19.1-7.3,28.5
				c-0.9,2.9-1.9,5.7-2.7,8.6c-0.7,2.6-1.4,5.6-2.4,8c-0.3,0.8-1.2,2.4-1.7,3c-0.1,0.2-0.7,0.8-1.1,1.2c-0.3,0.3,0.1,0-0.3,0.2
				c-0.3,0.2-0.5,0.3-0.8,0.5c-0.4,0.2,0,0.1-0.5,0.2c-0.3,0.1-0.6,0.2-0.9,0.2c0,0-0.5,0.1-0.1,0c-0.1,0-0.3,0-0.4,0
				c-0.6,0-1.1,0-1.7,0.1c-2.5,0.1-5,0.2-7.5,0.2c-9.9,0.2-19.9,0.1-29.8-0.2c-11.3-0.4-22.5-1.1-33.8-2c-1-0.1-2.2,0.8-2.4,1.8
				c-2,9.9-3.1,19.8-4.3,29.8c-0.2,1.3,1.3,2.5,2.5,2.5c1.5,0,2.3-1.2,2.5-2.5c1.2-9.5,2.3-19,4.1-28.5c-0.8,0.6-1.6,1.2-2.4,1.8
				c20.6,1.7,41.2,2.7,61.8,2.3c2.6,0,5.1-0.1,7.7-0.2c1.9-0.1,3.8,0,5.6-0.5c2.8-0.8,5-2.8,6.5-5.3c3.1-5.1,3.6-11.2,5.6-16.6
				c0-0.2,0.4-0.9,0.2-0.5c0.3-0.7,0.5-1.5,0.7-2.2c0.4-1.3,0.8-2.6,1.2-4c0.8-2.7,1.5-5.5,2.3-8.2c1.5-5.6,2.8-11.2,4-16.8
				c0.4-1.6-0.7-3.1-2.4-3.2c-20.6-1-41.2-1.8-61.9-2.2c-5.8-0.1-11.6-0.2-17.5-0.3C230.7,281.7,230.7,286.7,234,286.7L234,286.7z"
				/>
		</g>
	</g>
	<g class="st1">
		<g>
			<path d="M162,363.3c1.8-10.4,3.5-20.8,5.3-31.2c0.3-2-1.1-3.3-3.1-3.1c-12.3,1.7-24.7,1.9-37.1,0.9c0.8,1,1.6,2.1,2.4,3.2
				c3.6-15.7,5.9-31.8,9.8-47.5c-0.8,0.6-1.6,1.2-2.4,1.8c13.3,0,26.6-2,39.9-0.9c1.4,0.1,2.5-1.2,2.5-2.5c0-1.5-1.1-2.4-2.5-2.5
				c-13.3-1.1-26.6,0.9-39.9,0.9c-1.1,0-2.1,0.8-2.4,1.8c-3.9,15.7-6.2,31.7-9.8,47.5c-0.4,1.7,0.8,3,2.4,3.2
				c12.8,1,25.6,0.6,38.4-1.1c-1-1-2.1-2-3.1-3.1c-1.8,10.4-3.5,20.8-5.3,31.2c-0.2,1.3,0.4,2.7,1.8,3.1
				C160.1,365.4,161.8,364.7,162,363.3L162,363.3z"/>
		</g>
	</g>
	<g class="st1">
		<g>
			<path d="M175.2,286.8c1.4-5.8,2.3-11.7,3.7-17.5c0.7-2.9,1.5-5.7,2.6-8.4c0.1-0.4,0.3-1.1,0.5-1.4c0.3-0.3,0.9-0.6,1.3-0.8
				c0.2-0.1,1.1-0.3,0.7-0.3c0.8-0.1,1.6,0,2.3,0c12.6-0.1,25.1-0.6,37.7-0.4c3.3,0.1,6.7,0,9.9,0.6c2.8,0.5,6.1,0.7,8.4,2.6
				c0-1.2,0-2.4,0-3.5c-0.4,0.6-0.9,1.1-1.4,1.6c-0.2,0.2-0.2,0.2,0,0c-0.1,0.1-0.2,0.1-0.3,0.2c-0.4-0.1,0.4-0.1,0.1,0
				c-0.5,0.1,1,0.1,0.7,0c0.5,0.1,0.8,0.4,1.1,0.8c0,0,0.2,0.9,0.1,0.3c0-0.1-0.2,0.7,0,0.1c0.1-0.4-0.3,0.6,0,0.1
				c0.3-0.5-0.4,0.4-0.1,0.1s-0.5,0.4-0.1,0c0.1-0.1-0.6,0.3,0,0c-0.4,0-0.5,0.1-0.2,0.1c-0.4-0.1-0.5-0.1-0.3,0
				c0.2,0,0.7,0.3,0.2,0c0.3,0.1,0.5,0.3,0.8,0.5c-0.3-1.1-0.6-2.3-0.9-3.4c-5.8,7.6-9.2,16.8-10,26.2c-0.1,1.4,1.2,2.5,2.5,2.5
				c1.4,0,2.4-1.1,2.5-2.5c0.7-8.6,4-16.9,9.3-23.7c0.9-1.1,0.1-2.7-0.9-3.4c-1.6-1.1-3.8-1.6-5.5-0.6c-1.4,0.9-2.2,2.4-2.2,4
				c0,1.9,1.3,3.6,3.3,3.7c2.1,0.1,3.8-1.7,5-3.2c0.8-1,1.2-2.6,0-3.5c-2.5-2-5.4-2.9-8.5-3.5c-1.4-0.3-2.9-0.7-4.4-0.8
				c-1.7-0.2-3.4-0.2-5.2-0.3c-6.8-0.2-13.5-0.2-20.3-0.1c-6.8,0.1-13.5,0.3-20.3,0.4c-1.4,0-3-0.2-4.4,0.2c-1.4,0.3-2.8,1.1-3.9,2
				c-1.4,1-1.8,2.7-2.4,4.2c-0.6,1.5-1.1,3.1-1.6,4.7c-2,6.9-3,14-4.6,21C169.6,288.6,174.4,290,175.2,286.8L175.2,286.8z"/>
		</g>
	</g>
	<g class="st1">
		<g>
			<path d="M390.8,263.7c-11.8,12.5-23.7,24.9-35.5,37.4c-10.3,10.9-20.8,21.8-29.4,34.2c-4.8,6.9-8.8,14.2-11.9,22
				c-0.5,1.3,0.5,2.8,1.8,3.1c1.4,0.4,2.6-0.5,3.1-1.8c5.3-13.4,13.9-25.1,23.3-35.9c10.4-11.9,21.6-23.2,32.5-34.6
				c6.6-6.9,13.2-13.8,19.7-20.8C396.5,264.9,393,261.4,390.8,263.7L390.8,263.7z"/>
		</g>
	</g>
	<g class="st1">
		<g>
			<path d="M389,273c-5.4,16.8-12.1,33.1-20,48.9c-3.7,7.3-7.4,14.8-11.9,21.7c-3.9,6-8.5,11.7-14.9,15.1
				c-8.2,4.4-17.9,3.8-26.9,3.2c-3.2-0.2-3.2,4.8,0,5c8.6,0.5,17.7,1,25.9-2.3c7.4-3,13-8.5,17.6-14.8c4.9-6.7,8.7-14.1,12.4-21.4
				c4.2-8.2,8.1-16.6,11.7-25.1c4-9.5,7.6-19.1,10.8-28.9C394.8,271.2,390,269.9,389,273L389,273z"/>
		</g>
	</g>
	<g class="st1">
		<g>
			<path d="M405.5,282.6c1.4,7.5,10.8,7.3,16.4,5.6c1.9-0.6,3.8-1.4,5.6-2.2c2.4-1,4.8-2.1,7.3-3.1c4.8-2.1,9.7-4.2,14.5-6.3
				s9.7-4.2,14.5-6.3c2.7-1.2,7.6-4,10.1-1c1.3,1.6,2.2,3.3,3.9,4.6c1.6,1.3,3.3,2.2,5.2,3c3.6,1.4,7.7,1.6,11.5,1.2
				c9-1,17.6-5.8,26.8-4.5c7.9,1.1,14.8,5.6,21.7,9.2c7.7,4,15.8,6.9,24.7,5.9c9.4-1.1,18.1-5.4,26-10.4c2-1.2,4-2.6,5.9-3.9
				c1.5-1,3.2-2.6,5.1-3c0.9-0.1,1.8,0.4,2.5,0.8c1,0.6,1.9,1.1,2.9,1.6c2.2,1,4.7,1.3,7.1,1.4c5.1,0.2,10.3,0,15.4,0.1
				c5.3,0,10.5,0,15.8,0c2.6,0,5.3,0,7.9,0c3.2,0,3.2-5,0-5c-10.4,0-20.8,0-31.2,0c-2.5,0-5.1,0-7.6,0c-2-0.1-4.1-0.2-6-1.2
				c-2-1.1-3.8-2.5-6.2-2.6s-4.6,1-6.5,2.3c-7.5,5.1-15.2,10.4-23.9,13.2c-4.2,1.4-8.5,2.1-12.9,1.9c-3.9-0.2-7.7-1.3-11.3-2.9
				c-7.4-3.2-14.1-7.8-21.8-10.6c-3.8-1.4-7.8-2.2-11.8-2c-4.9,0.1-9.7,1.5-14.4,2.8c-6.7,1.8-15.5,3.9-21.6-0.8
				c-1.5-1.2-2.4-2.7-3.5-4.2c-1.4-1.8-3.3-2.9-5.6-3.2c-4.5-0.5-8.9,2.1-12.9,3.8c-9.5,4.1-19.1,8.2-28.6,12.4
				c-3.9,1.7-7.5,3.6-11.6,4.5c-1.4,0.3-2.7,0.5-4.2,0.4c-1.2,0-2.4-0.3-3.3-0.8c-0.4-0.2-0.1,0-0.4-0.2c-0.1-0.1-0.6-0.7-0.4-0.4
				c-0.4-0.6-0.4-0.6-0.6-1.5c-0.2-1.3-1.9-2.1-3.1-1.8C405.9,279.9,405.3,281.3,405.5,282.6L405.5,282.6z"/>
		</g>
	</g>
	<g class="st1">
		<g>
			<path d="M425.3,316.6c1-1.5,0.4-3.5-1.1-4.3c-1.3-0.7-3-0.5-4.2,0.3c-1.7,1.1-1.9,3.3-0.8,5c1,1.6,3,2.2,4.8,2.4
				c4.3,0.5,8.8,0.4,13.1,0.6c4.6,0.2,9.3,0.4,13.9,0.6c18.5,0.7,37,1.5,55.5,2.2c9.1,0.4,18.3,0.7,27.4,0c9.1-0.7,18-2.6,27.1-2.7
				c8-0.1,16,1.7,23,5.5c3.5,1.9,6.5,4.3,9.7,6.6c3.3,2.4,6.9,4,11.1,4.3c4.5,0.3,9-0.8,13.4-1.6c4.6-0.8,9.2-1.6,13.7-2.4
				c9.1-1.6,18.1-3.2,27.2-4.7c2.3-0.4,4.6-0.8,6.9-1.2c1.3-0.2,2.1-1.9,1.8-3.1c-0.4-1.4-1.7-2-3.1-1.8
				c-16.8,2.9-33.6,5.9-50.5,8.8c-3.8,0.7-7.9,1.5-11.7,0.5c-3.4-0.9-6.2-3.2-8.9-5.2c-5.9-4.5-12.5-7.8-19.8-9.5
				c-8-1.9-16.1-1.5-24.2-0.5c-8.4,1-16.7,2.1-25.1,2.2c-8.6,0.1-17.2-0.3-25.7-0.7c-8.5-0.3-17.1-0.7-25.6-1
				c-8.5-0.3-17.1-0.7-25.6-1c-4.3-0.2-8.6-0.3-13-0.5c-2.1-0.1-4.1-0.2-6.2-0.2c-1.7-0.1-3.4-0.1-5-0.4c0,0-0.1-0.1-0.1-0.1
				c0,0,0,0,0,0c0.1,0.2,0.2,0.3,0.2,0.6c0,0.3-0.8,1.4-1,1.5c0,0-0.2,0-0.2,0c0.3,0.1-0.3-0.1-0.2,0c-0.8-0.5-2.9-0.1-1.1-2.8
				C419.2,316.8,423.5,319.3,425.3,316.6L425.3,316.6z"/>
		</g>
	</g>
	<g class="st1">
		<g>
			<path d="M204.6,105.7c7.9,9.9,9.8,23.2,18.2,32.9c3.7,4.2,8.6,7.8,14.3,8.7c7.1,1.1,13.7-1.9,20.1-4.5
				c14.2-5.8,28.4-11.5,42.6-17.3c7.1-2.9,14.3-5.8,21.5-8.7c3.4-1.4,6.7-3,10.2-3.9c2.7-0.7,5.5-0.8,7.8,0.9
				c3.2,2.4,4.5,6.8,5.9,10.3c1.6,4.1,3.4,8.5,6.8,11.4c4.9,4.2,11.4,4.1,17.5,3.3c7.2-0.9,14.5-2,21.7-3.1
				c7.2-1.1,14.3-2.4,21.4-4.1c7-1.6,13.9-4,20.8-5.9c3.2-0.9,6.5-1.6,9.9-1.4c3.5,0.1,6.2,1.6,9.1,3.4c2.9,1.8,5.8,3.1,9.2,3.6
				c3.5,0.5,7.1,0.5,10.7,0.7c30.8,1.3,61.5,2.5,92.3,3.8c3.8,0.2,7.6,0.3,11.4,0.5c3.2,0.1,3.2-4.9,0-5
				c-30.4-1.2-60.8-2.5-91.2-3.7c-3.9-0.2-7.8-0.3-11.8-0.5c-3.5-0.1-7-0.1-10.5-0.6c-3.6-0.5-6.2-2.2-9.2-4c-2.7-1.7-5.6-2.7-8.8-3
				c-6.7-0.7-13.4,1.8-19.7,3.7c-7,2.2-14.2,3.9-21.4,5.4c-7.1,1.4-14.3,2.6-21.5,3.6c-3.6,0.5-7.2,1-10.8,1.5
				c-3.1,0.4-6.3,0.9-9.5,0.6c-10.5-0.8-11-13-15.6-20.1c-2.7-4.3-7.1-7-12.3-6.6c-3.5,0.3-6.8,1.6-10.1,3c-3.5,1.4-7,2.9-10.6,4.3
				c-14.1,5.7-28.1,11.4-42.2,17.1c-6.9,2.8-13.9,5.8-20.9,8.4c-6,2.3-12,3.4-17.8-0.1c-10.7-6.4-13.6-19.8-19-30.1
				c-1.5-2.8-3.2-5.5-5.2-7.9c-0.9-1.1-2.6-0.9-3.5,0C203.5,103.1,203.7,104.6,204.6,105.7L204.6,105.7z"/>
		</g>
	</g>
	<g class="st1">
		<g>
			<path d="M620.3,131.4c1.1,0.6,2.2,1.1,3.4,1.7c0.3,0.2,0.6,0.3,0.9,0.3c0.3,0.1,0.7,0.1,1,0c0.3-0.1,0.6-0.2,0.8-0.5
				c0.3-0.2,0.5-0.4,0.6-0.7c0.3-0.6,0.5-1.3,0.2-1.9c-0.2-0.6-0.6-1.2-1.2-1.5c-1.1-0.6-2.2-1.1-3.4-1.7c-0.3-0.2-0.6-0.3-0.9-0.3
				c-0.3-0.1-0.7-0.1-1,0c-0.3,0.1-0.6,0.2-0.8,0.5c-0.3,0.2-0.5,0.4-0.6,0.7c-0.3,0.6-0.5,1.3-0.2,1.9
				C619.3,130.5,619.7,131.1,620.3,131.4L620.3,131.4z"/>
		</g>
	</g>
</g>
<g id="Layer_2_00000097464413266614544240000002768950370825719177_">
	<g>
		<path class="st2" d="M35.5,156.1c-2.6-0.1-4.8-1.7-5.6-4.2c-9-30.6-16.4-60.3-21.5-88.5c-1.2-3.4,2.7-7.2,4.4-7.9
			c5.3-2.1,14.4-3.1,25-4.1C60.5,49.2,75.5,36.9,92,21.1c5.1-4.9,10.5-9.4,15.9-12.7c7.2-4.4,31.4-4,37.9,1.4
			c1.1,0.9,1.1,0.9,1.5,1.3c18,20.7,34.1,37.6,61.6,38.4c20.4,0.6,41.9,2,54.3,4.8c4.1,1,6,5.6,3.8,9.2
			c-12.7,20.4-50.7,79.1-62.9,91.2c-1.2,1.2-2.8,1.8-4.5,1.8l-62.8,0c-2.4,0-4.1-1.2-4.1-4.2l2.2-23.8l34.9,0l5.6-45.6h-34.3
			l3.1-25.8H82l-4.5,25.5l-25.3-0.1l-5.3,45.9l24.6,0.1l-3.4,25.5c-0.2,1.2-1.2,2.1-2.4,2.1L35.5,156.1z"/>
	</g>
	<path class="st2" d="M210.9,156.5c51.2,0,56.9-62.3,60.9-92.5c0.1-1-1.4-1.5-1.8-0.5c-3.4,8.5-46,77.6-62.4,91.8
		C206.3,156.4,209.1,156.5,210.9,156.5z"/>
	<g>
		<path class="st3" d="M442.2,6.4v64.8h-7.4l0.1-58.1l-16.8,58.1h-8.2L393,13.4v57.8h-7.4V6.4h12.9l15.5,55l15.2-54.9H442.2z"/>
		<path class="st3" d="M457.7,55.1c0,1.6,0.2,2.9,0.7,4s1.1,2,1.9,2.7c0.8,0.7,1.7,1.2,2.8,1.5s2.3,0.5,3.7,0.5s2.6-0.2,3.7-0.5
			c1.1-0.3,2.1-0.8,2.9-1.5c0.8-0.7,1.4-1.6,1.8-2.7s0.7-2.5,0.7-4v-33h5.7v32.1c0,2.6-0.4,4.8-1.1,6.5c-0.7,1.8-1.7,3.2-3,4.3
			c-1.3,1.1-2.9,1.9-4.7,2.4c-1.8,0.5-3.8,0.8-6,0.8s-4.2-0.2-6-0.8s-3.4-1.3-4.7-2.4c-1.3-1.1-2.3-2.6-3.1-4.3
			c-0.7-1.8-1.1-4-1.1-6.5V22.1h5.7V55.1z"/>
		<path class="st3" d="M493.3,55.2c0,2.7,0.8,4.9,2.4,6.4c1.6,1.5,3.9,2.2,7,2.2c2.9,0,5.1-0.7,6.6-2.1s2.3-3.4,2.3-6
			c0-1.3-0.2-2.3-0.8-3.2s-1.2-1.6-2-2.2c-0.8-0.6-1.7-1.1-2.7-1.5s-2-0.8-3-1.3l-5-2.2c-1.6-0.7-3-1.4-4.2-2.2s-2.3-1.6-3.2-2.5
			c-0.9-1-1.6-2-2.1-3.2s-0.7-2.5-0.7-4.1c0-3.6,1.2-6.5,3.5-8.7s5.8-3.2,10.5-3.2c4.9,0,8.5,1,10.8,3c2.2,2,3.4,4.8,3.4,8.4v1.6
			h-5.6V33c0-2.1-0.7-3.8-2.2-5.1c-1.5-1.3-3.5-2-6.2-2c-1.2,0-2.3,0.2-3.4,0.5c-1,0.3-1.9,0.8-2.7,1.4s-1.3,1.4-1.8,2.4
			s-0.6,2-0.6,3.3c0,1.2,0.2,2.2,0.6,3c0.4,0.8,1,1.5,1.9,2.1c0.8,0.6,1.7,1.2,2.8,1.7c1.1,0.5,2.4,1,3.7,1.6l5.1,2.1
			c1.4,0.5,2.7,1.2,3.8,1.8c1.2,0.6,2.2,1.4,3.1,2.3c0.8,0.9,1.5,1.9,2,3c0.5,1.1,0.7,2.4,0.7,3.9c0,4.2-1.2,7.5-3.6,9.8
			c-2.4,2.3-6.1,3.5-11.2,3.5c-2.8,0-5.2-0.4-7.1-1.1c-1.9-0.7-3.4-1.6-4.6-2.8c-1.2-1.2-2-2.6-2.4-4.2s-0.7-3.3-0.7-5v-1.7h5.5
			L493.3,55.2L493.3,55.2z"/>
		<path class="st3" d="M523.5,22h26.2v5h-20.5v15.1h19.4v5h-19.4v15.3h21v5h-26.7V22z"/>
		<path class="st3" d="M561.5,55.1c0,1.6,0.2,2.9,0.7,4s1.1,2,1.9,2.7c0.8,0.7,1.7,1.2,2.8,1.5s2.3,0.5,3.7,0.5s2.6-0.2,3.7-0.5
			c1.1-0.3,2.1-0.8,2.9-1.5c0.8-0.7,1.4-1.6,1.8-2.7s0.7-2.5,0.7-4v-33h5.7v32.1c0,2.6-0.4,4.8-1.1,6.5c-0.7,1.8-1.7,3.2-3,4.3
			c-1.3,1.1-2.9,1.9-4.7,2.4c-1.8,0.5-3.8,0.8-6,0.8s-4.2-0.2-6-0.8s-3.4-1.3-4.7-2.4c-1.3-1.1-2.3-2.6-3.1-4.3
			c-0.7-1.8-1.1-4-1.1-6.5V22.1h5.7V55.1z"/>
		<path class="st3" d="M633.2,22v45.4H628l0-40.7l-11.8,40.7h-5.7L598.7,27v40.4h-5.2V22h9l10.8,38.5L624,22L633.2,22L633.2,22z"/>
		<path class="st3" d="M379.8,69.5v-1.8h68.2v1.8H379.8z"/>
		<path class="st3" d="M448.1,69.5v-1.8h189.2v1.8H448.1z"/>
		<path class="st3" d="M637.2,69.5v-1.8h18.9v1.8H637.2z"/>
		<path class="st3" d="M500.7,75.5c1.5,0,2.7,0.2,3.7,0.6s1.8,1,2.3,2c0.6,0.9,1,2.2,1.2,3.7c0.2,1.5,0.4,3.5,0.4,5.7
			c0,2.3-0.1,4.2-0.4,5.8s-0.7,2.8-1.2,3.7c-0.6,0.9-1.4,1.6-2.3,2c-1,0.4-2.2,0.6-3.7,0.6s-2.7-0.2-3.7-0.6c-1-0.4-1.8-1-2.3-2
			c-0.6-0.9-1-2.2-1.2-3.7c-0.2-1.5-0.4-3.5-0.4-5.8c0-2.3,0.1-4.2,0.4-5.7c0.2-1.5,0.7-2.8,1.2-3.7c0.6-0.9,1.3-1.6,2.3-2
			S499.2,75.5,500.7,75.5z M500.7,97.2c0.9,0,1.6-0.1,2.2-0.3s1.1-0.7,1.5-1.4c0.4-0.7,0.6-1.7,0.8-2.9s0.3-3,0.3-5
			c0-2.1-0.1-3.8-0.3-5.1c-0.2-1.3-0.5-2.2-0.8-2.9c-0.4-0.7-0.9-1.1-1.5-1.3s-1.3-0.3-2.2-0.3c-0.9,0-1.6,0.1-2.2,0.3
			c-0.6,0.2-1.1,0.6-1.4,1.3s-0.6,1.6-0.8,2.9s-0.2,3-0.2,5.1c0,2.1,0.1,3.8,0.2,5.1s0.4,2.3,0.8,3c0.4,0.7,0.8,1.1,1.4,1.3
			C499.1,97.1,499.8,97.2,500.7,97.2z"/>
		<path class="st3" d="M512.2,75.7h12.8v2.6h-9.8l0,7.3h9.3v2.6h-9.3l0,10.9h-2.9L512.2,75.7L512.2,75.7z"/>
		<path class="st3" d="M340.1,99.3V153h-10.4l-22.6-49.2V153h-6.4V99.3h10.8l22.2,49v-49H340.1z"/>
		<path class="st3" d="M352.6,139.7c0,1.3,0.2,2.4,0.6,3.3s0.9,1.7,1.6,2.3c0.6,0.6,1.4,1,2.4,1.3c0.9,0.3,1.9,0.4,3,0.4
			s2.1-0.1,3-0.4c0.9-0.3,1.7-0.7,2.4-1.3c0.6-0.6,1.2-1.4,1.5-2.3c0.4-0.9,0.5-2,0.5-3.3v-27.4h4.7v26.6c0,2.1-0.3,4-0.9,5.4
			c-0.6,1.5-1.4,2.7-2.5,3.6c-1.1,0.9-2.4,1.6-3.9,2s-3.2,0.6-5,0.6s-3.5-0.2-5-0.6c-1.5-0.4-2.8-1.1-3.9-2s-1.9-2.1-2.5-3.6
			c-0.6-1.5-0.9-3.3-0.9-5.4v-26.6h4.7L352.6,139.7L352.6,139.7z"/>
		<path class="st3" d="M390.8,112.3c3.6,0,6.2,1,8,2.9s2.6,4.7,2.6,8.2c0,2.5-0.5,4.7-1.4,6.4c-0.9,1.8-2.4,3-4.3,3.8l6.9,16.3H398
			l-6.5-15.5h-0.7h-7.7v15.5h-4.7v-37.6L390.8,112.3L390.8,112.3z M390.6,130.7c1.9,0,3.4-0.6,4.5-1.7c1.1-1.2,1.6-3,1.6-5.6
			c0-2.5-0.5-4.4-1.6-5.6s-2.6-1.9-4.5-1.9h-7.5v14.8L390.6,130.7L390.6,130.7z"/>
		<path class="st3" d="M410,139.8c0,2.3,0.7,4,2,5.3s3.2,1.9,5.8,1.9c2.4,0,4.2-0.6,5.5-1.7c1.3-1.1,1.9-2.8,1.9-5
			c0-1.1-0.2-1.9-0.6-2.6s-1-1.3-1.6-1.8c-0.7-0.5-1.4-0.9-2.2-1.2c-0.8-0.3-1.7-0.7-2.5-1.1l-4.2-1.8c-1.3-0.6-2.5-1.2-3.5-1.8
			c-1-0.6-1.9-1.3-2.7-2.1c-0.8-0.8-1.3-1.7-1.8-2.6c-0.4-1-0.6-2.1-0.6-3.4c0-3,1-5.4,2.9-7.2c1.9-1.8,4.8-2.7,8.7-2.7
			c4.1,0,7.1,0.8,8.9,2.5s2.8,4,2.8,7v1.3h-4.6v-1.3c0-1.7-0.6-3.1-1.9-4.2c-1.2-1.1-2.9-1.6-5.1-1.6c-1,0-1.9,0.1-2.8,0.4
			s-1.6,0.6-2.2,1.2c-0.6,0.5-1.1,1.2-1.5,2c-0.4,0.8-0.5,1.7-0.5,2.7c0,1,0.2,1.8,0.5,2.5c0.4,0.7,0.9,1.3,1.5,1.8
			c0.6,0.5,1.4,1,2.4,1.4c0.9,0.4,2,0.9,3.1,1.3l4.2,1.7c1.1,0.5,2.2,1,3.2,1.5c1,0.5,1.8,1.2,2.6,1.9c0.7,0.7,1.3,1.6,1.7,2.5
			s0.6,2,0.6,3.3c0,3.5-1,6.2-3,8.1c-2,1.9-5,2.9-9.2,2.9c-2.4,0-4.3-0.3-5.9-0.9c-1.6-0.6-2.9-1.4-3.8-2.3c-1-1-1.6-2.2-2-3.5
			s-0.6-2.7-0.6-4.2v-1.4h4.6L410,139.8L410,139.8z"/>
		<path class="st3" d="M435.1,112.3h4.7v37.6h-4.7V112.3z"/>
		<path class="st3" d="M473.9,112.3v37.6h-7.3l-15.8-34.4v34.4h-4.5v-37.6h7.5l15.6,34.3v-34.3H473.9z"/>
		<path class="st3" d="M492,130.4h12.8v7.8c0,1.6-0.2,3.1-0.6,4.6s-1.1,2.8-2,4c-0.9,1.1-2.2,2-3.7,2.7s-3.4,1-5.6,1
			c-2.5,0-4.5-0.3-6.2-0.9c-1.6-0.6-2.9-1.6-3.9-3.1c-1-1.5-1.7-3.5-2.1-6c-0.4-2.5-0.6-5.6-0.6-9.4c0-3.8,0.2-7,0.7-9.5
			c0.4-2.5,1.2-4.5,2.2-6c1-1.5,2.3-2.5,3.9-3.1c1.6-0.6,3.7-0.9,6.1-0.9c2.3,0,4.1,0.3,5.6,1c1.5,0.7,2.6,1.5,3.5,2.6
			c0.8,1.1,1.4,2.3,1.8,3.7c0.4,1.4,0.6,2.8,0.8,4.3h-4.6c-0.2-1.3-0.4-2.5-0.8-3.4s-0.7-1.7-1.3-2.4c-0.6-0.6-1.3-1-2.1-1.3
			c-0.8-0.3-1.8-0.4-3-0.4c-1.3,0-2.5,0.1-3.5,0.4s-1.8,0.9-2.5,2c-0.7,1.1-1.2,2.6-1.5,4.6s-0.5,4.8-0.5,8.3c0,3.4,0.2,6.1,0.5,8.1
			c0.3,2,0.8,3.6,1.5,4.6c0.7,1.1,1.5,1.7,2.5,2s2.2,0.5,3.5,0.5c1.2,0,2.3-0.1,3.2-0.4s1.7-0.8,2.3-1.4c0.6-0.6,1-1.5,1.4-2.6
			s0.5-2.4,0.5-3.9v-4H492L492,130.4L492,130.4z"/>
		<path class="st3" d="M556.1,127.5h-22V153h-6.7V99.3h6.7v22.3h22V99.3h6.7V153h-6.7V127.5z"/>
		<path class="st3" d="M570.8,112.3h4.7v37.6h-4.7V112.3z"/>
		<path class="st3" d="M585.3,139.8c0,2.3,0.7,4,2,5.3s3.2,1.9,5.8,1.9c2.4,0,4.2-0.6,5.5-1.7c1.3-1.1,1.9-2.8,1.9-5
			c0-1.1-0.2-1.9-0.6-2.6s-1-1.3-1.6-1.8c-0.7-0.5-1.4-0.9-2.2-1.2c-0.8-0.3-1.7-0.7-2.5-1.1l-4.2-1.8c-1.3-0.6-2.5-1.2-3.5-1.8
			c-1-0.6-1.9-1.3-2.7-2.1c-0.8-0.8-1.3-1.7-1.8-2.6c-0.4-1-0.6-2.1-0.6-3.4c0-3,1-5.4,2.9-7.2c1.9-1.8,4.8-2.7,8.7-2.7
			c4.1,0,7.1,0.8,8.9,2.5s2.8,4,2.8,7v1.3h-4.6v-1.3c0-1.7-0.6-3.1-1.8-4.2c-1.2-1.1-2.9-1.6-5.1-1.6c-1,0-1.9,0.1-2.8,0.4
			s-1.6,0.6-2.2,1.2c-0.6,0.5-1.1,1.2-1.5,2c-0.3,0.8-0.5,1.7-0.5,2.7c0,1,0.2,1.8,0.5,2.5c0.3,0.7,0.9,1.3,1.5,1.8
			c0.7,0.5,1.4,1,2.4,1.4s2,0.9,3.1,1.3l4.2,1.7c1.1,0.5,2.2,1,3.2,1.5c1,0.5,1.8,1.2,2.6,1.9c0.7,0.7,1.3,1.6,1.7,2.5
			s0.6,2,0.6,3.3c0,3.5-1,6.2-3,8.1c-2,1.9-5,2.9-9.2,2.9c-2.4,0-4.3-0.3-5.9-0.9c-1.6-0.6-2.8-1.4-3.8-2.3c-1-1-1.6-2.2-2-3.5
			s-0.6-2.7-0.6-4.2v-1.4h4.6L585.3,139.8L585.3,139.8z"/>
		<path class="st3" d="M608,112.3h27v4.1h-11.2v33.5h-4.7v-33.5H608V112.3z"/>
		<path class="st3" d="M649.5,111.9c2.4,0,4.4,0.3,5.9,1c1.6,0.6,2.8,1.7,3.8,3.2s1.6,3.5,2,6s0.6,5.6,0.6,9.2
			c0,3.7-0.2,6.8-0.6,9.3s-1,4.5-2,6c-1,1.5-2.2,2.5-3.8,3.2s-3.5,1-5.9,1s-4.4-0.3-5.9-1c-1.6-0.6-2.8-1.7-3.8-3.2
			c-1-1.5-1.6-3.5-2-6c-0.4-2.5-0.6-5.6-0.6-9.3c0-3.7,0.2-6.8,0.6-9.2s1.1-4.5,2-6c0.9-1.5,2.2-2.5,3.7-3.2
			C645.1,112.2,647.1,111.9,649.5,111.9z M649.4,146.8c1.4,0,2.6-0.2,3.5-0.5s1.8-1.1,2.4-2.2c0.6-1.1,1-2.7,1.3-4.7
			s0.4-4.8,0.4-8.1c0-3.4-0.1-6.2-0.4-8.2s-0.7-3.6-1.3-4.7c-0.6-1.1-1.4-1.8-2.4-2.1c-1-0.3-2.2-0.5-3.5-0.5s-2.5,0.2-3.5,0.5
			s-1.7,1-2.3,2.1s-1,2.6-1.3,4.7c-0.3,2.1-0.4,4.8-0.4,8.2c0,3.4,0.1,6.1,0.4,8.2s0.7,3.6,1.3,4.8c0.6,1.1,1.4,1.8,2.3,2.1
			C646.9,146.6,648.1,146.8,649.4,146.8z"/>
		<path class="st3" d="M679.9,112.3c3.6,0,6.2,1,8,2.9s2.6,4.7,2.6,8.2c0,2.5-0.5,4.7-1.4,6.4c-0.9,1.8-2.4,3-4.3,3.8l6.9,16.3h-4.6
			l-6.5-15.5h-0.7h-7.7v15.5h-4.7v-37.6L679.9,112.3L679.9,112.3z M679.7,130.7c1.9,0,3.4-0.6,4.5-1.7c1.1-1.2,1.6-3,1.6-5.6
			c0-2.5-0.5-4.4-1.6-5.6s-2.6-1.9-4.5-1.9h-7.5v14.8L679.7,130.7L679.7,130.7z"/>
		<path class="st3" d="M692.6,112.3h5l9.3,17.6l9.3-17.5h5.1l-11.9,21.5v16.1h-4.7v-16L692.6,112.3z"/>
		<path class="st3" d="M296.3,151.6v-1.5h48.3v1.5H296.3z"/>
		<path class="st3" d="M344.6,151.6v-1.5h162.6v1.5H344.6z"/>
		<path class="st3" d="M507.2,151.6v-1.5h60.1v1.5H507.2z"/>
		<path class="st3" d="M567.3,151.6v-1.5H722v1.5H567.3z"/>
	</g>
</g>
</svg>
